<svg xmlns="http://www.w3.org/2000/svg" xmlns:xlink="http://www.w3.org/1999/xlink" width="64" height="64" viewBox="0 0 64 64" fill="none">
<path     fill="#FFE411"  d="M0 58L0 6C0 2.68629 2.68629 0 6 0L58 0C61.3137 0 64 2.68629 64 6L64 58C64 61.3137 61.3137 64 58 64L6 64C2.68629 64 0 61.3137 0 58Z">
</path>
<g opacity="0.99">
<path d="M30.5882 8C30.9655 8 31.3424 8.00944 31.7191 8.02832C32.0957 8.0472 32.4716 8.07549 32.8468 8.1132C33.2221 8.1509 33.5962 8.19798 33.9691 8.25443C34.342 8.31088 34.7133 8.37663 35.083 8.45168C35.4525 8.52673 35.82 8.61098 36.1853 8.70441C36.5507 8.79787 36.9135 8.90042 37.2738 9.01204C37.6341 9.12366 37.9912 9.24424 38.3456 9.37376C38.7 9.50328 39.0506 9.64159 39.3979 9.78868C39.7452 9.93576 40.0886 10.0915 40.428 10.2557C40.7676 10.42 41.1028 10.5927 41.4334 10.7738C41.7643 10.9549 42.0904 11.1441 42.4118 11.3415C42.7331 11.539 43.0493 11.7443 43.3605 11.9575C43.6713 12.1708 43.9768 12.3917 44.277 12.6203C44.5771 12.8488 44.8711 13.0847 45.1593 13.328C45.4476 13.5713 45.7294 13.8217 46.005 14.0791C46.2808 14.3365 46.5499 14.6006 46.8122 14.8715C47.0745 15.1424 47.3301 15.4197 47.5785 15.7034C47.8273 15.9871 48.0684 16.2768 48.3025 16.5725C48.5366 16.8683 48.763 17.1698 48.9818 17.4769C49.2007 17.784 49.4119 18.0964 49.6152 18.4141C49.8184 18.7317 50.0136 19.0543 50.2008 19.3818C50.388 19.7092 50.5667 20.0412 50.7369 20.3776C50.9075 20.714 51.0696 21.0545 51.2229 21.399C51.3762 21.7436 51.521 22.0917 51.6571 22.4435C51.7929 22.7953 51.92 23.1502 52.0383 23.5084C52.1566 23.8665 52.2656 24.2274 52.3658 24.591C52.4661 24.9546 52.557 25.3205 52.6389 25.6887C52.7205 26.0569 52.793 26.4269 52.8563 26.7987C52.9198 27.1705 52.9737 27.5437 53.0181 27.9181C53.0627 28.2927 53.098 28.668 53.1237 29.0443C53.1494 29.4206 53.1657 29.7973 53.1728 30.1743C53.1799 30.5514 53.1773 30.9284 53.1652 31.3054C52.2848 30.5798 51.3361 29.9586 50.3191 29.4419C50.2976 29.0724 50.2657 28.7038 50.2236 28.3361C50.1813 27.9684 50.1288 27.6022 50.0661 27.2374C50.0031 26.8727 49.9303 26.51 49.847 26.1493C49.764 25.7887 49.6708 25.4306 49.5674 25.0752C49.4641 24.7198 49.3509 24.3676 49.228 24.0185C49.1049 23.6695 48.9722 23.3241 48.8296 22.9826C48.6871 22.641 48.5352 22.3036 48.3739 21.9706C48.2124 21.6375 48.0419 21.3092 47.862 20.9858C47.6822 20.6623 47.4933 20.3441 47.2956 20.0312C47.0977 19.7184 46.8913 19.4113 46.6764 19.11C46.4616 18.8087 46.2382 18.5137 46.0067 18.225C45.7752 17.9363 45.5357 17.6542 45.2884 17.379C45.0408 17.1037 44.7858 16.8356 44.5235 16.5746C44.2612 16.3136 43.9915 16.0602 43.7148 15.8144C43.4381 15.5686 43.1546 15.3308 42.8647 15.1009C42.5747 14.871 42.2782 14.6494 41.9758 14.4362C41.6734 14.2229 41.3651 14.0183 41.0511 13.8223C40.7371 13.6264 40.4178 13.4394 40.0934 13.2614C39.7689 13.0835 39.4397 12.9147 39.1057 12.7552C38.7717 12.5957 38.4334 12.4457 38.0909 12.3052C37.7484 12.1646 37.4025 12.0339 37.0527 11.9128C36.7029 11.7917 36.3502 11.6806 35.9942 11.5794C35.6382 11.4781 35.2796 11.3869 34.9184 11.3058C34.5574 11.2248 34.1943 11.1539 33.8291 11.0931C33.4641 11.0325 33.0976 10.9821 32.7296 10.9419C32.3616 10.9018 31.9929 10.8721 31.6233 10.8527C31.2537 10.8333 30.8838 10.8243 30.5137 10.8257C30.1436 10.8271 29.7738 10.8388 29.4044 10.861C29.0349 10.8832 28.6664 10.9157 28.2987 10.9586C27.9311 11.0014 27.565 11.0546 27.2004 11.118C26.8357 11.1814 26.4731 11.255 26.1127 11.3388C25.7522 11.4226 25.3943 11.5165 25.0391 11.6204C24.6838 11.7243 24.3318 11.8381 23.983 11.9618C23.6341 12.0854 23.289 12.2188 22.9477 12.3619C22.6063 12.505 22.2693 12.6575 21.9365 12.8195C21.6037 12.9815 21.2758 13.1527 20.9526 13.3331C20.6294 13.5136 20.3116 13.7029 19.9991 13.9012C19.6866 14.0995 19.3799 14.3064 19.079 14.5219C18.7781 14.7374 18.4835 14.9612 18.1951 15.1933C17.9068 15.4253 17.6252 15.6653 17.3504 15.9132C17.0756 16.1611 16.8079 16.4165 16.5474 16.6794C16.2869 16.9423 16.034 17.2124 15.7886 17.4895C15.5433 17.7666 15.306 18.0504 15.0766 18.3409C14.8472 18.6313 14.6261 18.928 14.4134 19.2309C14.2007 19.5338 13.9967 19.8424 13.8013 20.1567C13.6059 20.4711 13.4195 20.7906 13.2421 21.1154C13.0647 21.4403 12.8965 21.7698 12.7376 22.1041C12.5787 22.4383 12.4293 22.7768 12.2894 23.1194C12.1495 23.4621 12.0193 23.8084 11.8989 24.1584C11.7784 24.5084 11.6679 24.8614 11.5673 25.2176C11.4667 25.5738 11.3761 25.9325 11.2957 26.2938C11.2152 26.655 11.145 27.0182 11.0849 27.3834C11.0249 27.7487 10.9751 28.1153 10.9357 28.4833C10.8962 28.8513 10.8671 29.2201 10.8484 29.5898C10.8297 29.9594 10.8213 30.3293 10.8233 30.6995C10.8254 31.0696 10.8378 31.4392 10.8606 31.8086C10.8834 32.1781 10.9166 32.5466 10.9601 32.914C11.0036 33.2816 11.0575 33.6476 11.1215 34.012C11.1856 34.3766 11.2598 34.7391 11.3443 35.0994C11.4288 35.4599 11.5232 35.8176 11.6278 36.1726C11.7323 36.5275 11.8467 36.8793 11.971 37.228C12.0953 37.5768 12.2293 37.9215 12.373 38.2626C12.5167 38.6037 12.6698 38.9405 12.8324 39.2731C12.995 39.6055 13.1667 39.9333 13.3478 40.256C13.4821 40.4957 13.5413 40.7527 13.5256 41.0268L13.4861 41.2922L11.3515 49.8221L19.8899 47.6932C20.065 47.65 20.242 47.6407 20.4207 47.6649L20.6776 47.7242L20.9233 47.8344C23.5209 49.2941 26.4207 50.1496 29.4419 50.3191C29.9586 51.3384 30.5854 52.2927 31.3054 53.1652C30.3629 53.1965 29.4221 53.1686 28.483 53.0813C27.544 52.9941 26.6141 52.8487 25.6934 52.6445C24.7726 52.4404 23.8683 52.1795 22.9804 51.8618C22.0925 51.5442 21.228 51.172 20.3868 50.7454L20.0452 50.5647L9.75341 53.1341C9.65438 53.159 9.55383 53.1731 9.45175 53.1762C9.34968 53.1793 9.24848 53.1714 9.14813 53.1525C9.04776 53.1336 8.9506 53.1039 8.85663 53.0641C8.76266 53.0243 8.67407 52.9746 8.59085 52.9153C8.50763 52.8563 8.43174 52.7888 8.36316 52.7131C8.29457 52.6375 8.2349 52.5553 8.18415 52.4666C8.13338 52.3783 8.09272 52.2851 8.06215 52.1877C8.03156 52.0903 8.01178 51.9906 8.00282 51.8889L8.00282 51.6574L8.04235 51.4231L10.6118 41.1341L10.4339 40.7953C9.78784 39.5236 9.26775 38.2022 8.8736 36.8313C8.47947 35.4602 8.21839 34.0644 8.09035 32.6438L8.01976 31.5652L8 30.5882C8 30.2185 8.00907 29.8491 8.02722 29.4799C8.04535 29.1107 8.07253 28.7421 8.10876 28.3742C8.145 28.0063 8.19024 27.6395 8.24449 27.2739C8.29872 26.9082 8.3619 26.5441 8.43403 26.1815C8.50615 25.8189 8.58712 25.4583 8.67694 25.0997C8.76677 24.7411 8.86534 24.385 8.97265 24.0312C9.07996 23.6774 9.19589 23.3265 9.32042 22.9785C9.44496 22.6304 9.57796 22.2856 9.71942 21.9441C9.8609 21.6026 10.0107 21.2647 10.1687 20.9305C10.3268 20.5964 10.4929 20.2663 10.6672 19.9402C10.8415 19.6142 11.0236 19.2926 11.2137 18.9756C11.4037 18.6585 11.6014 18.3463 11.8068 18.0389C12.0122 17.7315 12.225 17.4294 12.4452 17.1325C12.6654 16.8355 12.8928 16.5442 13.1273 16.2584C13.3618 15.9726 13.6032 15.6928 13.8515 15.4189C14.0997 15.145 14.3546 14.8773 14.616 14.616C14.8773 14.3546 15.145 14.0997 15.4189 13.8515C15.6928 13.6032 15.9726 13.3618 16.2584 13.1273C16.5442 12.8928 16.8355 12.6654 17.1325 12.4452C17.4294 12.225 17.7315 12.0122 18.0389 11.8068C18.3463 11.6014 18.6585 11.4037 18.9756 11.2137C19.2926 11.0236 19.6142 10.8415 19.9402 10.6672C20.2663 10.4929 20.5964 10.3268 20.9305 10.1687C21.2647 10.0107 21.6026 9.8609 21.9441 9.71942C22.2856 9.57796 22.6304 9.44496 22.9785 9.32042C23.3265 9.19589 23.6774 9.07996 24.0312 8.97265C24.385 8.86534 24.7411 8.76677 25.0997 8.67694C25.4583 8.58712 25.8189 8.50615 26.1815 8.43403C26.5441 8.3619 26.9082 8.29872 27.2739 8.24449C27.6395 8.19024 28.0063 8.145 28.3742 8.10876C28.7421 8.07253 29.1107 8.04535 29.4799 8.02722C29.8491 8.00907 30.2185 8 30.5882 8ZM56 43.2941C56 43.5022 55.9949 43.71 55.9848 43.9176C55.9746 44.1251 55.9593 44.3326 55.9387 44.5396C55.9184 44.7465 55.893 44.9527 55.8625 45.1585C55.832 45.3643 55.7964 45.569 55.7558 45.7729C55.7154 45.977 55.6696 46.1798 55.6191 46.3814C55.5686 46.5832 55.5132 46.7834 55.4528 46.9825C55.3927 47.1816 55.3274 47.3789 55.2571 47.5746C55.1871 47.7703 55.1123 47.9642 55.0329 48.1565C54.9533 48.3485 54.8692 48.5385 54.7802 48.7266C54.6913 48.9146 54.5976 49.1004 54.4996 49.2837C54.4016 49.4669 54.2994 49.6479 54.1924 49.8264C54.0854 50.0045 53.9741 50.1801 53.8586 50.3532C53.7432 50.526 53.6234 50.696 53.4995 50.8629C53.3755 51.03 53.2476 51.1941 53.1158 51.3547C52.9839 51.5154 52.8484 51.6729 52.7086 51.8268C52.5688 51.981 52.4257 52.1315 52.2786 52.2786C52.1315 52.4257 51.981 52.5688 51.8268 52.7086C51.6729 52.8484 51.5154 52.9839 51.3547 53.1158C51.1941 53.2476 51.03 53.3755 50.8629 53.4995C50.696 53.6234 50.526 53.7432 50.3532 53.8586C50.1801 53.9741 50.0045 54.0854 49.8264 54.1924C49.6479 54.2994 49.4669 54.4016 49.2837 54.4996C49.1004 54.5976 48.9146 54.6913 48.7266 54.7802C48.5385 54.8692 48.3485 54.9533 48.1565 55.0329C47.9642 55.1123 47.7703 55.1871 47.5746 55.2571C47.3789 55.3274 47.1816 55.3927 46.9825 55.4528C46.7834 55.5132 46.5832 55.5686 46.3814 55.6191C46.1798 55.6696 45.977 55.7154 45.7729 55.7558C45.569 55.7964 45.3643 55.832 45.1585 55.8625C44.9527 55.893 44.7465 55.9184 44.5396 55.9387C44.3326 55.9593 44.1251 55.9746 43.9176 55.9848C43.71 55.9949 43.5022 56 43.2941 56C43.086 56 42.8782 55.9949 42.6707 55.9848C42.4632 55.9746 42.2556 55.9593 42.0487 55.9387C41.8417 55.9184 41.6356 55.893 41.4297 55.8625C41.2239 55.832 41.0192 55.7964 40.8153 55.7558C40.6112 55.7154 40.4085 55.6696 40.2069 55.6191C40.005 55.5686 39.8048 55.5132 39.6057 55.4528C39.4067 55.3927 39.2093 55.3274 39.0136 55.2571C38.818 55.1871 38.624 55.1123 38.4317 55.0329C38.2397 54.9533 38.0497 54.8692 37.8616 54.7802C37.6736 54.6913 37.4878 54.5976 37.3046 54.4996C37.1213 54.4016 36.9403 54.2994 36.7619 54.1924C36.5837 54.0854 36.4081 53.9741 36.235 53.8586C36.0622 53.7432 35.8923 53.6234 35.7254 53.4995C35.5582 53.3755 35.3942 53.2476 35.2335 53.1158C35.0728 52.9839 34.9154 52.8484 34.7614 52.7086C34.6072 52.5688 34.4567 52.4257 34.3096 52.2786C34.1626 52.1315 34.0193 51.981 33.8796 51.8268C33.7399 51.6729 33.6042 51.5154 33.4725 51.3547C33.3405 51.1941 33.2126 51.03 33.0888 50.8629C32.9649 50.696 32.8452 50.526 32.7296 50.3532C32.614 50.1801 32.5028 50.0045 32.3959 49.8264C32.2889 49.6479 32.1866 49.4669 32.0887 49.2837C31.9906 49.1004 31.897 48.9146 31.808 48.7266C31.7191 48.5385 31.6349 48.3485 31.5553 48.1565C31.4759 47.9642 31.4011 47.7703 31.3311 47.5746C31.2609 47.3789 31.1957 47.1816 31.1354 46.9825C31.075 46.7834 31.0196 46.5832 30.9691 46.3814C30.9185 46.1798 30.8729 45.977 30.8325 45.7729C30.7918 45.569 30.7562 45.3643 30.7257 45.1585C30.6952 44.9527 30.6698 44.7465 30.6495 44.5396C30.629 44.3326 30.6136 44.1251 30.6035 43.9176C30.5933 43.71 30.5882 43.5022 30.5882 43.2941C30.5882 43.086 30.5933 42.8782 30.6035 42.6707C30.6136 42.4632 30.629 42.2556 30.6495 42.0487C30.6698 41.8417 30.6952 41.6356 30.7257 41.4297C30.7562 41.2239 30.7918 41.0192 30.8325 40.8153C30.8729 40.6112 30.9185 40.4085 30.9691 40.2069C31.0196 40.005 31.075 39.8048 31.1354 39.6057C31.1957 39.4067 31.2609 39.2093 31.3311 39.0136C31.4011 38.818 31.4759 38.624 31.5553 38.4317C31.6349 38.2397 31.7191 38.0497 31.808 37.8616C31.897 37.6736 31.9906 37.4878 32.0887 37.3046C32.1866 37.1213 32.2889 36.9403 32.3959 36.7619C32.5028 36.5837 32.614 36.4081 32.7296 36.235C32.8452 36.0622 32.9649 35.8923 33.0888 35.7254C33.2126 35.5582 33.3405 35.3942 33.4725 35.2335C33.6042 35.0728 33.7399 34.9154 33.8796 34.7614C34.0193 34.6072 34.1626 34.4567 34.3096 34.3096C34.4567 34.1626 34.6072 34.0193 34.7614 33.8796C34.9154 33.7399 35.0728 33.6042 35.2335 33.4725C35.3942 33.3405 35.5582 33.2126 35.7254 33.0888C35.8923 32.9649 36.0622 32.8452 36.235 32.7296C36.4081 32.614 36.5837 32.5028 36.7619 32.3959C36.9403 32.2889 37.1213 32.1866 37.3046 32.0887C37.4878 31.9906 37.6736 31.897 37.8616 31.808C38.0497 31.7191 38.2397 31.6349 38.4317 31.5553C38.624 31.4759 38.818 31.4011 39.0136 31.3311C39.2093 31.2609 39.4067 31.1957 39.6057 31.1354C39.8048 31.075 40.005 31.0196 40.2069 30.9691C40.4085 30.9185 40.6112 30.8729 40.8153 30.8325C41.0192 30.7918 41.2239 30.7562 41.4297 30.7257C41.6356 30.6952 41.8417 30.6698 42.0487 30.6495C42.2556 30.629 42.4632 30.6136 42.6707 30.6035C42.8782 30.5933 43.086 30.5882 43.2941 30.5882C43.5022 30.5882 43.71 30.5933 43.9176 30.6035C44.1251 30.6136 44.3326 30.629 44.5396 30.6495C44.7465 30.6698 44.9527 30.6952 45.1585 30.7257C45.3643 30.7562 45.569 30.7918 45.7729 30.8325C45.977 30.8729 46.1798 30.9185 46.3814 30.9691C46.5832 31.0196 46.7834 31.075 46.9825 31.1354C47.1816 31.1957 47.3789 31.2609 47.5746 31.3311C47.7703 31.4011 47.9642 31.4759 48.1565 31.5553C48.3485 31.6349 48.5385 31.7191 48.7266 31.808C48.9146 31.897 49.1004 31.9906 49.2837 32.0887C49.4669 32.1866 49.6479 32.2889 49.8264 32.3959C50.0045 32.5028 50.1801 32.614 50.3532 32.7296C50.526 32.8452 50.696 32.9649 50.8629 33.0888C51.03 33.2126 51.1941 33.3405 51.3547 33.4725C51.5154 33.6042 51.6729 33.7399 51.8268 33.8796C51.981 34.0193 52.1315 34.1626 52.2786 34.3096C52.4257 34.4567 52.5688 34.6072 52.7086 34.7614C52.8484 34.9154 52.9839 35.0728 53.1158 35.2335C53.2476 35.3942 53.3755 35.5582 53.4995 35.7254C53.6234 35.8923 53.7432 36.0622 53.8586 36.235C53.9741 36.4081 54.0854 36.5837 54.1924 36.7619C54.2994 36.9403 54.4016 37.1213 54.4996 37.3046C54.5976 37.4878 54.6913 37.6736 54.7802 37.8616C54.8692 38.0497 54.9533 38.2397 55.0329 38.4317C55.1123 38.624 55.1871 38.818 55.2571 39.0136C55.3274 39.2093 55.3927 39.4067 55.4528 39.6057C55.5132 39.8048 55.5686 40.005 55.6191 40.2069C55.6696 40.4085 55.7154 40.6112 55.7558 40.8153C55.7964 41.0192 55.832 41.2239 55.8625 41.4297C55.893 41.6356 55.9184 41.8417 55.9387 42.0487C55.9593 42.2556 55.9746 42.4632 55.9848 42.6707C55.9949 42.8782 56 43.086 56 43.2941ZM40.0584 40.0584C40.1239 39.9926 40.1823 39.9211 40.234 39.844C40.2854 39.767 40.3288 39.6854 40.3644 39.5998C40.3997 39.514 40.4265 39.4256 40.4446 39.3347C40.4627 39.2438 40.4717 39.152 40.4717 39.0591C40.4714 38.9662 40.4624 38.8744 40.4443 38.7835C40.4263 38.6923 40.3994 38.604 40.3639 38.5184C40.3283 38.4328 40.2848 38.3512 40.2334 38.2742C40.1817 38.1971 40.1233 38.1256 40.0575 38.0601C39.992 37.9944 39.9206 37.9359 39.8435 37.8842C39.7664 37.8328 39.6848 37.7894 39.5992 37.7538C39.5137 37.7182 39.4253 37.6914 39.3341 37.6733C39.2432 37.6552 39.1514 37.6462 39.0585 37.6459C38.9656 37.6459 38.8739 37.655 38.783 37.673C38.692 37.6911 38.6037 37.7179 38.5178 37.7532C38.4323 37.7888 38.3507 37.8323 38.2736 37.8837C38.1965 37.9353 38.1251 37.9938 38.0593 38.0593L33.824 42.2946C33.7585 42.3601 33.7 42.4315 33.6484 42.5086C33.597 42.5857 33.5536 42.667 33.5182 42.7526C33.4826 42.8381 33.4558 42.9265 33.4377 43.0174C33.4197 43.1083 33.4106 43.2001 33.4106 43.2927C33.4106 43.3853 33.4197 43.4771 33.4377 43.568C33.4558 43.6589 33.4826 43.7473 33.5182 43.8328C33.5536 43.9184 33.597 43.9997 33.6484 44.0768C33.7 44.1539 33.7585 44.2253 33.824 44.2908L38.0593 48.5261C38.1248 48.5919 38.1962 48.6504 38.2733 48.702C38.3504 48.7537 38.4317 48.7972 38.5173 48.8328C38.6028 48.868 38.6912 48.8949 38.7824 48.9132C38.8733 48.9313 38.9651 48.9403 39.0577 48.9406C39.1506 48.9406 39.2424 48.9316 39.3336 48.9135C39.4245 48.8957 39.5128 48.8689 39.5984 48.8333C39.6842 48.798 39.7656 48.7545 39.8426 48.7032C39.9197 48.6515 39.9912 48.593 40.0569 48.5275C40.1227 48.462 40.1812 48.3906 40.2328 48.3135C40.2845 48.2364 40.328 48.1551 40.3636 48.0696C40.3989 47.984 40.4257 47.8956 40.444 47.8044C40.4621 47.7135 40.4712 47.6217 40.4714 47.5291C40.4714 47.4362 40.4624 47.3445 40.4443 47.2533C40.4265 47.1624 40.3997 47.074 40.3641 46.9884C40.3288 46.9026 40.2854 46.8213 40.234 46.7442C40.1823 46.6671 40.1239 46.5957 40.0584 46.5299L36.8198 43.2941L40.0584 40.0584ZM45.2904 41.8824L47.1172 40.0584C47.1827 39.9926 47.2411 39.9211 47.2928 39.844C47.3442 39.767 47.3877 39.6854 47.4232 39.5998C47.4585 39.514 47.4854 39.4256 47.5034 39.3347C47.5215 39.2438 47.5305 39.152 47.5305 39.0591C47.5303 38.9662 47.5212 38.8744 47.5032 38.7835C47.4851 38.6923 47.4583 38.604 47.4227 38.5184C47.3871 38.4328 47.3436 38.3512 47.2922 38.2742C47.2406 38.1971 47.1821 38.1256 47.1163 38.0601C47.0508 37.9944 46.9794 37.9359 46.9023 37.8842C46.8252 37.8328 46.7436 37.7894 46.6581 37.7538C46.5725 37.7182 46.4841 37.6914 46.3929 37.6733C46.302 37.6552 46.2103 37.6462 46.1174 37.6459C46.0245 37.6459 45.9327 37.655 45.8418 37.673C45.7509 37.6911 45.6625 37.7179 45.5767 37.7532C45.4911 37.7888 45.4095 37.8323 45.3324 37.8837C45.2553 37.9353 45.1839 37.9938 45.1181 38.0593L40.8828 42.2946C40.8173 42.3601 40.7589 42.4315 40.7072 42.5086C40.6558 42.5857 40.6123 42.667 40.577 42.7526C40.5415 42.8381 40.5146 42.9265 40.4966 43.0174C40.4785 43.1083 40.4695 43.2001 40.4695 43.2927C40.4695 43.3853 40.4785 43.4771 40.4966 43.568C40.5146 43.6589 40.5415 43.7473 40.577 43.8328C40.6123 43.9184 40.6558 43.9997 40.7072 44.0768C40.7589 44.1539 40.8173 44.2253 40.8828 44.2908L45.1181 48.5261C45.1836 48.5919 45.2551 48.6504 45.3321 48.702C45.4092 48.7537 45.4905 48.7972 45.5761 48.8328C45.6616 48.868 45.75 48.8949 45.8412 48.9132C45.9321 48.9313 46.0239 48.9403 46.1165 48.9406C46.2094 48.9406 46.3012 48.9316 46.3924 48.9135C46.4833 48.8957 46.5717 48.8689 46.6572 48.8333C46.7431 48.798 46.8244 48.7545 46.9015 48.7032C46.9785 48.6515 47.05 48.593 47.1158 48.5275C47.1816 48.462 47.24 48.3906 47.2917 48.3135C47.3433 48.2364 47.3868 48.1551 47.4224 48.0696C47.4577 47.984 47.4845 47.8956 47.5029 47.8044C47.5209 47.7135 47.53 47.6217 47.5303 47.5291C47.5303 47.4362 47.5212 47.3445 47.5032 47.2533C47.4854 47.1624 47.4585 47.074 47.423 46.9884C47.3877 46.9026 47.3442 46.8213 47.2928 46.7442C47.2411 46.6671 47.1827 46.5957 47.1172 46.5299L45.2904 44.7059L50.3529 44.7059L50.3529 46.1176C50.3529 46.2103 50.362 46.302 50.38 46.3929C50.3981 46.4839 50.4249 46.5722 50.4605 46.6578C50.4958 46.7433 50.5393 46.8249 50.591 46.902C50.6424 46.9791 50.7008 47.0503 50.7663 47.116C50.8321 47.1816 50.9032 47.24 50.9803 47.2914C51.0574 47.3431 51.139 47.3865 51.2246 47.4218C51.3101 47.4574 51.3985 47.4842 51.4894 47.5023C51.5803 47.5204 51.6721 47.5294 51.7647 47.5294C51.8573 47.5294 51.9491 47.5204 52.04 47.5023C52.1309 47.4842 52.2193 47.4574 52.3048 47.4218C52.3904 47.3865 52.472 47.3431 52.5491 47.2914C52.6262 47.24 52.6973 47.1816 52.7631 47.116C52.8286 47.0503 52.8871 46.9791 52.9384 46.902C52.9901 46.8249 53.0336 46.7433 53.0689 46.6578C53.1045 46.5722 53.1313 46.4839 53.1494 46.3929C53.1674 46.302 53.1765 46.2103 53.1765 46.1176L53.1765 44.7059C53.1765 44.5204 53.1584 44.3368 53.1223 44.155C53.0861 43.9732 53.0325 43.7967 52.9616 43.6253C52.8907 43.4539 52.8038 43.2913 52.7007 43.1371C52.5976 42.983 52.4805 42.8404 52.3495 42.7094C52.2184 42.5781 52.0759 42.4612 51.9217 42.3581C51.7675 42.2551 51.6049 42.1681 51.4335 42.0972C51.2621 42.0264 51.0856 41.9727 50.9038 41.9366C50.722 41.9004 50.5384 41.8824 50.3529 41.8824L45.2904 41.8824Z"   fill="#4D453E" >
</path>
</g>
</svg>
